<svg width="183" height="183" viewBox="0 0 183 183" fill="none" xmlns="http://www.w3.org/2000/svg">
<path d="M76.7502 160.988C76.2457 160.882 75.7576 160.887 75.286 161.003C74.8145 161.12 74.4033 161.328 74.0524 161.63C73.7 161.939 73.4556 162.323 73.3192 162.781L71.3009 162.356C71.4936 161.63 71.8861 160.998 72.4783 160.46C73.0613 159.928 73.7608 159.545 74.5767 159.309C75.3911 159.081 76.2379 159.06 77.1171 159.245C78.0498 159.441 78.8294 159.777 79.4559 160.252C80.0747 160.726 80.5532 161.297 80.8912 161.967C81.2216 162.636 81.4235 163.365 81.4968 164.155C81.5608 164.95 81.5051 165.765 81.3298 166.598L81.2284 167.08C81.053 167.913 80.7765 168.677 80.3987 169.372C80.0117 170.073 79.5323 170.663 78.9606 171.141C78.3812 171.618 77.7129 171.949 76.9557 172.133C76.1908 172.315 75.342 172.308 74.4093 172.112C73.4384 171.907 72.6316 171.53 71.989 170.98C71.3448 170.437 70.8879 169.782 70.6182 169.015C70.3393 168.253 70.2709 167.44 70.4128 166.576L72.4311 167.001C72.3615 167.521 72.4095 168.014 72.5749 168.48C72.7326 168.945 72.9998 169.344 73.3765 169.679C73.7439 170.02 74.2104 170.249 74.7762 170.369C75.426 170.505 76 170.49 76.4981 170.324C76.9869 170.163 77.4072 169.892 77.7588 169.511C78.1012 169.136 78.3852 168.697 78.6109 168.194C78.8274 167.696 78.9927 167.176 79.1069 166.633L79.2083 166.152C79.3225 165.609 79.3816 165.063 79.3856 164.513C79.3896 163.963 79.3105 163.447 79.1483 162.966C78.9784 162.483 78.703 162.066 78.3219 161.714C77.9316 161.368 77.4077 161.126 76.7502 160.988Z" fill="#F42E0E"/>
<path d="M58.7888 164.667L63.2587 154.959L65.228 155.866L59.9248 167.384L58.0088 166.501L58.7888 164.667ZM54.3283 164.884L55.1819 163.058C55.3288 163.169 55.4751 163.262 55.6209 163.338C55.7563 163.417 55.9162 163.499 56.1007 163.584C56.5549 163.794 56.9885 163.907 57.4016 163.925C57.8147 163.944 58.2007 163.88 58.5596 163.736C58.9185 163.592 59.2506 163.375 59.5559 163.085C59.8508 162.8 60.116 162.457 60.3513 162.058L61.0519 161.994C60.7317 162.689 60.3636 163.311 59.9478 163.859C59.5249 164.404 59.0601 164.844 58.5535 165.178C58.0436 165.52 57.5047 165.719 56.9367 165.776C56.3584 165.836 55.757 165.723 55.1325 165.435C54.9906 165.37 54.8355 165.277 54.6674 165.156C54.4959 165.043 54.3829 164.952 54.3283 164.884Z" fill="#F42E0E"/>
<path d="M44.1097 158.534L51.3379 148.116L53.1287 149.359L45.9005 159.776L44.1097 158.534ZM44.118 162.633C43.9176 162.922 43.6617 163.106 43.3504 163.185C43.0326 163.259 42.7004 163.176 42.3538 162.935C42.0136 162.699 41.8226 162.419 41.781 162.096C41.7329 161.767 41.8091 161.459 42.0095 161.17C42.201 160.894 42.4588 160.721 42.783 160.651C43.0964 160.584 43.4231 160.668 43.7633 160.904C44.1099 161.144 44.3063 161.423 44.3524 161.74C44.3877 162.06 44.3095 162.357 44.118 162.633Z" fill="#F42E0E"/>
<path d="M35.4812 148.391L43.2645 141.86L44.6655 143.53L34.9521 151.68L33.6264 150.1L35.4812 148.391ZM38.3259 146.585L38.9468 147.38C38.2775 147.931 37.5912 148.359 36.888 148.664C36.1789 148.973 35.4767 149.139 34.7816 149.162C34.0865 149.184 33.4193 149.045 32.7801 148.745C32.1349 148.45 31.5412 147.98 30.9988 147.333C30.6172 146.878 30.3315 146.404 30.1418 145.911C29.9461 145.422 29.8679 144.922 29.9071 144.41C29.9464 143.897 30.1162 143.383 30.4166 142.865C30.7169 142.348 31.1723 141.834 31.7828 141.321L38.2554 135.89L39.6489 137.551L33.2571 142.914C32.7484 143.341 32.4142 143.769 32.2546 144.199C32.09 144.623 32.0694 145.048 32.1929 145.475C32.3104 145.906 32.5449 146.332 32.8964 146.751C33.3082 147.241 33.7389 147.579 34.1887 147.762C34.6384 147.946 35.0988 148.008 35.5697 147.95C36.0407 147.891 36.5113 147.741 36.9816 147.499C37.4409 147.257 37.8891 146.952 38.3259 146.585ZM32.13 141.061L33.4052 141.888C32.8675 142.328 32.283 142.671 31.6516 142.915C31.0152 143.153 30.3699 143.272 29.7157 143.27C29.0565 143.262 28.4153 143.112 27.7921 142.819C27.163 142.531 26.5898 142.079 26.0726 141.462C25.6357 140.941 25.3178 140.423 25.119 139.906C24.9152 139.384 24.8414 138.865 24.8977 138.348C24.943 137.831 25.1268 137.315 25.4492 136.799C25.7715 136.284 26.2379 135.77 26.8484 135.258L33.2312 129.903L34.6322 131.572L28.2315 136.943C27.6868 137.4 27.3377 137.841 27.1841 138.265C27.0195 138.689 27.0079 139.107 27.1493 139.518C27.2798 139.929 27.5232 140.347 27.8798 140.772C28.1861 141.137 28.5201 141.407 28.8818 141.583C29.2435 141.759 29.6154 141.85 29.9975 141.856C30.3737 141.866 30.7451 141.804 31.1118 141.67C31.4734 141.53 31.8128 141.327 32.13 141.061Z" fill="#F42E0E"/>
<path d="M27.5615 117.313C27.8914 118.132 28.0529 118.93 28.0462 119.708C28.0292 120.481 27.8635 121.209 27.5489 121.892C27.2314 122.567 26.7759 123.172 26.1824 123.706C25.589 124.239 24.8792 124.673 24.0531 125.006L23.5965 125.19C22.64 125.575 21.7316 125.777 20.8713 125.795C20.0039 125.816 19.2114 125.689 18.4941 125.413C17.7767 125.138 17.1599 124.746 16.6436 124.238C16.1274 123.73 15.7364 123.147 15.4707 122.487C15.1321 121.647 14.985 120.864 15.0297 120.138C15.0714 119.406 15.2743 118.738 15.6384 118.137C15.9952 117.538 16.4872 117.003 17.1142 116.532C17.7339 116.063 18.4568 115.662 19.2829 115.329L20.1851 114.966L23.7235 123.749L22.0822 124.41L19.354 117.638L19.2018 117.699C18.6917 117.939 18.2282 118.252 17.8114 118.639C17.3916 119.018 17.1026 119.472 16.9443 119.999C16.786 120.526 16.8456 121.133 17.1229 121.822C17.3068 122.278 17.574 122.659 17.9244 122.964C18.2675 123.273 18.683 123.488 19.1707 123.612C19.6585 123.735 20.2048 123.764 20.8096 123.697C21.4144 123.63 22.0718 123.454 22.782 123.168L23.2385 122.984C23.7965 122.759 24.2912 122.471 24.7227 122.121C25.144 121.766 25.4796 121.365 25.7294 120.919C25.9764 120.466 26.1188 119.983 26.1567 119.471C26.1917 118.951 26.0982 118.416 25.8764 117.866C25.5903 117.155 25.203 116.612 24.7146 116.236C24.2262 115.86 23.6648 115.585 23.0304 115.411L23.5074 113.804C23.9936 113.903 24.4895 114.078 24.995 114.329C25.5005 114.581 25.9772 114.949 26.4252 115.433C26.8704 115.911 27.2491 116.538 27.5615 117.313Z" fill="#F42E0E"/>
<path d="M14.319 90.7897L16.0999 90.7561L16.2076 96.4739L14.4267 96.5074L14.319 90.7897Z" fill="#F42E0E"/>
<path d="M24.2663 65.1206C23.9722 65.0148 23.6764 64.9832 23.3789 65.0256C23.0767 65.058 22.7512 65.2357 22.4026 65.5586C22.0492 65.8715 21.6539 66.3935 21.2166 67.1246C20.8389 67.736 20.458 68.2756 20.0738 68.7435C19.6923 69.204 19.2981 69.5728 18.8912 69.8499C18.487 70.1196 18.0654 70.2876 17.6264 70.3539C17.1874 70.4202 16.7217 70.3647 16.2292 70.1875C15.7587 70.0183 15.3509 69.7554 15.0059 69.3988C14.6636 69.0349 14.3995 68.6036 14.2135 68.105C14.0302 67.599 13.9445 67.041 13.9564 66.4309C13.9683 65.8208 14.0946 65.1812 14.3352 64.5123C14.679 63.5566 15.1416 62.8014 15.7231 62.2467C16.3045 61.692 16.943 61.3364 17.6387 61.1798C18.327 61.0206 19.0129 61.0639 19.6966 61.3098L18.9628 63.3498C18.632 63.2308 18.2765 63.2151 17.8963 63.3025C17.5115 63.3799 17.1487 63.569 16.808 63.8699C16.4699 64.1634 16.2044 64.5785 16.0113 65.1152C15.8077 65.6812 15.7307 66.1724 15.7802 66.5888C15.825 66.9951 15.9506 67.3267 16.1571 67.5837C16.3662 67.8332 16.6178 68.0109 16.9118 68.1167C17.1323 68.196 17.3441 68.2307 17.5469 68.2206C17.7451 68.2006 17.9534 68.1177 18.1718 67.9721C18.3829 67.8239 18.6157 67.5922 18.8703 67.2769C19.1248 66.9616 19.4151 66.5471 19.741 66.0334C20.3133 65.135 20.8675 64.4252 21.4036 63.9041C21.9398 63.3829 22.4877 63.0486 23.0472 62.9012C23.6066 62.7537 24.2062 62.795 24.8457 63.0251C25.3677 63.2128 25.8059 63.495 26.1603 63.8716C26.5173 64.2408 26.7798 64.6881 26.9479 65.2135C27.1112 65.7288 27.1792 66.3013 27.152 66.9308C27.1201 67.5503 26.9786 68.2093 26.7274 68.9077C26.3492 69.9589 25.8418 70.781 25.2051 71.3739C24.5684 71.9668 23.8848 72.3436 23.1545 72.5044C22.4242 72.6651 21.7282 72.6264 21.0666 72.3884L21.8044 70.3374C22.3737 70.509 22.8766 70.5073 23.3132 70.3322C23.7424 70.1545 24.1036 69.8776 24.3966 69.5014C24.6823 69.1227 24.9005 68.7238 25.0513 68.3047C25.2522 67.746 25.3466 67.2528 25.3345 66.825C25.325 66.3898 25.2273 66.0267 25.0414 65.7357C24.8555 65.4446 24.5971 65.2396 24.2663 65.1206Z" fill="#F42E0E"/>
<path d="M23.9793 45.9425L25.3871 46.8298L21.7316 52.6294L20.3239 51.7421L23.9793 45.9425ZM18.9538 48.1358L20.1097 46.3017L30.787 53.0314C31.1505 53.2606 31.4602 53.3773 31.716 53.3815C31.9719 53.3858 32.1858 53.3175 32.3578 53.1765C32.5297 53.0356 32.6803 52.8626 32.8094 52.6578C32.9052 52.5057 32.992 52.3388 33.0697 52.1569C33.145 51.9642 33.1998 51.8187 33.2341 51.7203L34.7373 52.6539C34.6919 52.8285 34.6141 53.0472 34.5038 53.3101C34.4042 53.5706 34.2503 53.8661 34.0421 54.1965C33.7588 54.646 33.4092 55.0028 32.9933 55.2671C32.5774 55.5313 32.0905 55.6446 31.5324 55.6068C30.972 55.5583 30.3349 55.3091 29.6211 54.8593L18.9538 48.1358Z" fill="#F42E0E"/>
<path d="M34.1919 42.9513L34.0015 42.7605C33.3559 42.1135 32.8511 41.4197 32.4873 40.679C32.118 39.9328 31.9062 39.1785 31.8517 38.4161C31.7918 37.6482 31.9003 36.8998 32.1774 36.1709C32.4488 35.4364 32.897 34.7574 33.522 34.1339C34.1524 33.5048 34.8351 33.0553 35.5702 32.7854C36.3052 32.5045 37.0566 32.3948 37.8244 32.4564C38.5922 32.5069 39.3488 32.7177 40.0942 33.0886C40.8341 33.454 41.5268 33.9603 42.1725 34.6073L42.3628 34.7981C43.0085 35.4451 43.5132 36.139 43.877 36.8796C44.2408 37.6203 44.4499 38.3773 44.5043 39.1508C44.5587 39.9132 44.4502 40.6616 44.1787 41.396C43.9072 42.1194 43.4563 42.7957 42.8258 43.4247C42.1954 44.0538 41.5154 44.5061 40.7859 44.7815C40.0509 45.0514 39.2994 45.1611 38.5316 45.1105C37.7638 45.0489 37.01 44.8354 36.2701 44.47C35.5303 44.1046 34.8375 43.5984 34.1919 42.9513ZM35.5361 41.2292L35.7265 41.42C36.1735 41.868 36.6482 42.2386 37.1506 42.5319C37.6475 42.8197 38.1527 43.0109 38.6664 43.1054C39.1856 43.1943 39.6938 43.1672 40.1912 43.0241C40.683 42.8755 41.1418 42.5888 41.5676 42.1638C41.9879 41.7445 42.2702 41.2918 42.4143 40.8058C42.5585 40.3088 42.5839 39.8033 42.4906 39.2895C42.3972 38.7756 42.2072 38.2699 41.9204 37.7724C41.6337 37.2639 41.2669 36.7856 40.8199 36.3377L40.6295 36.1469C40.1881 35.7045 39.7161 35.3421 39.2137 35.0598C38.7113 34.7665 38.2005 34.5754 37.6814 34.4864C37.1622 34.3864 36.6539 34.408 36.1566 34.5511C35.6648 34.6886 35.206 34.9699 34.7801 35.3948C34.3598 35.8142 34.0776 36.2724 33.9334 36.7694C33.7948 37.2609 33.7721 37.7691 33.8655 38.294C33.9588 38.8079 34.1516 39.3163 34.4439 39.8194C34.7306 40.3168 35.0947 40.7868 35.5361 41.2292Z" fill="#F42E0E"/>
<path d="M49.4872 24.7366L56.9751 37.869L55.0816 38.9487L46.3864 23.6988L48.117 22.712L49.4872 24.7366ZM58.7893 23.8035L58.9112 24.0172C59.3678 24.8181 59.6965 25.6154 59.8973 26.4092C60.0943 27.1963 60.1527 27.9454 60.0726 28.6565C59.9992 29.3639 59.7772 30.0076 59.4065 30.5877C59.0358 31.1678 58.5077 31.6532 57.8222 32.0441C57.1232 32.4427 56.4398 32.6794 55.7721 32.7544C55.1043 32.8293 54.4581 32.7527 53.8333 32.5244C53.2085 32.296 52.608 31.9369 52.0319 31.4471C51.4626 30.9533 50.9166 30.3428 50.394 29.6155L49.7439 28.4753C49.361 27.6145 49.0977 26.7978 48.954 26.0254C48.8104 25.2529 48.7922 24.5349 48.8994 23.8712C49.0095 23.1969 49.2615 22.59 49.6555 22.0506C50.0455 21.5045 50.5867 21.034 51.2789 20.6393C51.9712 20.2446 52.6628 20.0301 53.3537 19.9959C54.0408 19.9549 54.7088 20.0776 55.3578 20.3641C56.0068 20.6506 56.6203 21.0877 57.1982 21.6754C57.7791 22.2526 58.3094 22.9619 58.7893 23.8035ZM57.0177 25.0969L56.8958 24.8831C56.5823 24.3334 56.2305 23.8505 55.8404 23.4344C55.4464 23.0115 55.0228 22.6865 54.5695 22.4593C54.1191 22.2215 53.6473 22.1038 53.1541 22.1062C52.657 22.1019 52.1505 22.2468 51.6347 22.5409C51.1597 22.8118 50.7921 23.1293 50.5321 23.4934C50.2788 23.8536 50.1093 24.2425 50.0237 24.6601C49.9341 25.0709 49.9119 25.4972 49.9571 25.9391C50.0051 26.3704 50.0982 26.7939 50.2364 27.2098L51.7398 29.8464C52.1464 30.2441 52.5918 30.5837 53.0761 30.8652C53.5565 31.1398 54.0738 31.29 54.628 31.3158C55.1784 31.3347 55.7624 31.1681 56.38 30.8159C56.889 30.5257 57.2668 30.1709 57.5133 29.7516C57.7628 29.3216 57.8998 28.8522 57.9245 28.3435C57.956 27.8309 57.8921 27.3008 57.7327 26.7531C57.5695 26.1987 57.3311 25.6466 57.0177 25.0969Z" fill="#F42E0E"/>
<path d="M82.8314 15.2978L83.0924 17.0598L77.4354 17.8978L77.1744 16.1357L82.8314 15.2978Z" fill="#F42E0E"/>
<path d="M109.391 23.0845L110.841 16.7204C110.952 16.2329 110.949 15.7876 110.833 15.3844C110.726 14.9754 110.501 14.6276 110.157 14.341C109.814 14.0544 109.357 13.846 108.785 13.7158C108.252 13.5943 107.763 13.5789 107.318 13.6697C106.88 13.7623 106.513 13.931 106.217 14.176C105.928 14.4227 105.745 14.7175 105.667 15.0603L103.553 14.5785C103.653 14.1367 103.868 13.7248 104.195 13.3427C104.522 12.9606 104.939 12.6429 105.446 12.3898C105.962 12.1307 106.544 11.9669 107.192 11.8984C107.85 11.824 108.553 11.8719 109.299 12.042C110.198 12.2469 110.955 12.5798 111.572 13.0407C112.195 13.5034 112.631 14.0875 112.879 14.793C113.136 15.4927 113.16 16.3033 112.95 17.225L111.637 22.9836C111.543 23.3949 111.478 23.8407 111.44 24.321C111.411 24.803 111.43 25.2281 111.498 25.5962L111.457 25.779L109.252 25.2764C109.2 25.0084 109.19 24.6655 109.222 24.2479C109.254 23.8227 109.311 23.4349 109.391 23.0845ZM110.983 17.7863L110.667 19.2769L108.53 18.7899C107.929 18.6528 107.38 18.5799 106.886 18.5713C106.392 18.5551 105.964 18.6057 105.601 18.7232C105.238 18.8407 104.939 19.0251 104.706 19.2764C104.474 19.52 104.314 19.8323 104.228 20.2131C104.139 20.6016 104.146 20.9758 104.248 21.3356C104.351 21.6955 104.555 22.0105 104.862 22.2808C105.179 22.5452 105.596 22.7365 106.114 22.8545C106.761 23.0021 107.364 22.9952 107.921 22.8338C108.479 22.6724 108.948 22.4267 109.327 22.0966C109.715 21.7682 109.962 21.42 110.07 21.0519L110.741 22.2745C110.615 22.5823 110.389 22.9035 110.065 23.2382C109.74 23.5728 109.339 23.874 108.861 24.1418C108.393 24.4036 107.861 24.591 107.267 24.7038C106.681 24.8108 106.054 24.7879 105.383 24.6352C104.545 24.4442 103.848 24.1129 103.29 23.6413C102.74 23.1714 102.352 22.6223 102.127 21.994C101.911 21.3598 101.881 20.6999 102.037 20.0144C102.188 19.3517 102.451 18.7985 102.824 18.3548C103.2 17.9035 103.669 17.5658 104.233 17.3417C104.799 17.1101 105.444 16.9848 106.17 16.9658C106.895 16.9469 107.681 17.0338 108.526 17.2265L110.983 17.7863Z" fill="#F42E0E"/>
<path d="M127.366 29.099C127.511 28.8223 127.583 28.5337 127.582 28.2331C127.591 27.9293 127.46 27.5825 127.188 27.1928C126.927 26.7998 126.464 26.3365 125.8 25.8028C125.246 25.3447 124.764 24.8932 124.353 24.4483C123.95 24.0071 123.638 23.566 123.42 23.1249C123.208 22.6874 123.1 22.2467 123.095 21.8028C123.089 21.3589 123.208 20.9052 123.451 20.4417C123.684 19.999 124 19.6312 124.401 19.3385C124.808 19.0495 125.272 18.8471 125.791 18.7315C126.318 18.6194 126.882 18.6112 127.485 18.7069C128.088 18.8025 128.704 19.0155 129.333 19.3458C130.233 19.8177 130.917 20.3797 131.386 21.0319C131.856 21.6841 132.12 22.3654 132.18 23.076C132.243 23.7796 132.106 24.4531 131.768 25.0965L129.849 24.0892C130.012 23.7779 130.076 23.428 130.042 23.0394C130.018 22.6476 129.881 22.2622 129.63 21.8834C129.385 21.5082 129.011 21.1881 128.506 20.9232C127.973 20.6437 127.497 20.4998 127.078 20.4916C126.669 20.4801 126.323 20.559 126.041 20.7282C125.765 20.901 125.554 21.1258 125.409 21.4025C125.3 21.6101 125.237 21.815 125.219 22.0173C125.211 22.2164 125.265 22.4341 125.379 22.6705C125.497 22.8999 125.694 23.1624 125.971 23.4578C126.249 23.7533 126.619 24.0978 127.083 24.4912C127.895 25.1815 128.522 25.828 128.964 26.4308C129.407 27.0335 129.662 27.6221 129.732 28.1965C129.801 28.771 129.677 29.3591 129.362 29.961C129.104 30.4522 128.764 30.8474 128.342 31.1467C127.928 31.4496 127.449 31.6482 126.905 31.7424C126.372 31.8333 125.796 31.822 125.176 31.7086C124.567 31.5918 123.933 31.361 123.276 31.0162C122.287 30.4972 121.542 29.8815 121.043 29.1694C120.543 28.4572 120.264 27.7284 120.205 26.9829C120.146 26.2374 120.28 25.5534 120.607 24.9307L122.537 25.9434C122.288 26.4837 122.221 26.9821 122.334 27.4386C122.451 27.8882 122.676 28.284 123.008 28.626C123.344 28.961 123.709 29.232 124.104 29.4389C124.63 29.7147 125.105 29.8761 125.531 29.9228C125.963 29.9732 126.336 29.9263 126.65 29.7822C126.964 29.6381 127.202 29.4103 127.366 29.099Z" fill="#F42E0E"/>
<path d="M144.037 29.4502L136.002 39.2594L134.316 37.8782L142.351 28.069L144.037 29.4502ZM144.355 25.3632C144.578 25.0912 144.847 24.9284 145.164 24.8747C145.487 24.826 145.811 24.9352 146.138 25.2026C146.458 25.4649 146.626 25.7591 146.642 26.0851C146.663 26.416 146.563 26.7175 146.34 26.9894C146.127 27.2493 145.857 27.4012 145.528 27.445C145.21 27.4877 144.891 27.3778 144.571 27.1154C144.244 26.8481 144.071 26.5545 144.05 26.2346C144.04 25.9135 144.142 25.6231 144.355 25.3632Z" fill="#F42E0E"/>
<path d="M148.416 49.2214L153.514 45.1453C153.904 44.8331 154.18 44.483 154.34 44.0951C154.511 43.7083 154.551 43.296 154.461 42.8579C154.371 42.4199 154.143 41.972 153.777 41.5144C153.435 41.0872 153.062 40.7705 152.657 40.5642C152.257 40.364 151.865 40.2674 151.48 40.2746C151.101 40.288 150.774 40.4044 150.499 40.6239L149.145 38.9306C149.499 38.6476 149.923 38.4587 150.418 38.3636C150.912 38.2686 151.436 38.2798 151.99 38.3971C152.555 38.5156 153.112 38.75 153.662 39.1003C154.223 39.4519 154.743 39.9267 155.221 40.5247C155.797 41.2447 156.182 41.9769 156.377 42.7212C156.577 43.4717 156.554 44.2001 156.309 44.9064C156.074 45.614 155.588 46.263 154.849 46.8533L150.236 50.5415C149.907 50.8049 149.578 51.1129 149.25 51.4654C148.926 51.824 148.677 52.1686 148.501 52.4992L148.354 52.6163L146.942 50.8498C147.069 50.6082 147.275 50.3338 147.559 50.0264C147.849 49.7141 148.135 49.4458 148.416 49.2214ZM152.961 46.0676L151.786 47.0372L150.417 45.3256C150.032 44.8435 149.648 44.445 149.266 44.1301C148.891 43.8103 148.524 43.5833 148.167 43.449C147.809 43.3147 147.461 43.2731 147.122 43.3242C146.789 43.3705 146.47 43.5156 146.164 43.7595C145.853 44.0083 145.626 44.3053 145.482 44.6506C145.337 44.9958 145.301 45.3698 145.373 45.7724C145.456 46.1763 145.663 46.5857 145.995 47.0007C146.41 47.5193 146.886 47.8892 147.422 48.1102C147.959 48.3312 148.479 48.4308 148.981 48.409C149.489 48.3932 149.9 48.275 150.213 48.0543L149.977 49.4287C149.686 49.5908 149.31 49.7018 148.847 49.7614C148.385 49.8211 147.884 49.8069 147.343 49.7189C146.814 49.6321 146.281 49.4477 145.746 49.1657C145.221 48.8849 144.744 48.476 144.315 47.939C143.778 47.2678 143.438 46.5741 143.296 45.8578C143.158 45.1477 143.197 44.4766 143.412 43.8447C143.638 43.2139 144.025 42.679 144.575 42.24C145.105 41.8155 145.655 41.5461 146.224 41.4315C146.798 41.3121 147.376 41.3404 147.957 41.5163C148.544 41.6873 149.127 41.9912 149.706 42.4282C150.286 42.8652 150.846 43.4223 151.388 44.0997L152.961 46.0676Z" fill="#F42E0E"/>
<path d="M162.717 57.7234L153.565 61.6833L152.704 59.6936L164.341 54.6588L165.155 56.5409L162.717 57.7234ZM159.619 58.5019L159.293 57.6598C160.092 57.3226 160.878 57.1229 161.652 57.0608C162.432 56.9955 163.163 57.0623 163.845 57.261C164.527 57.4597 165.128 57.7869 165.649 58.2426C166.18 58.7024 166.597 59.2837 166.901 59.9864C167.149 60.56 167.294 61.1104 167.335 61.6375C167.383 62.1615 167.308 62.6578 167.111 63.1262C166.916 63.6019 166.587 64.0421 166.124 64.4468C165.668 64.8485 165.056 65.2153 164.289 65.5472L156.664 68.8463L155.798 66.8459L163.445 63.5374C164.055 63.2737 164.503 62.9731 164.792 62.6357C165.087 62.2951 165.242 61.9171 165.258 61.5015C165.282 61.0829 165.185 60.6226 164.968 60.1207C164.753 59.626 164.454 59.2193 164.069 58.9005C163.688 58.5889 163.25 58.3653 162.758 58.2295C162.268 58.1009 161.751 58.0565 161.206 58.0964C160.672 58.1403 160.143 58.2754 159.619 58.5019Z" fill="#F42E0E"/>
<path d="M168.69 91.7944L166.91 91.8606L166.698 86.1458L168.478 86.0796L168.69 91.7944Z" fill="#F42E0E"/>
<path d="M174.736 117.514L157.73 111.614L158.441 109.565L175.446 115.466L174.736 117.514ZM164.343 113.362L164.672 112.521C165.488 112.813 166.203 113.197 166.814 113.674C167.434 114.153 167.927 114.697 168.295 115.304C168.664 115.912 168.885 116.559 168.961 117.247C169.041 117.945 168.956 118.655 168.705 119.379C168.5 119.969 168.235 120.472 167.908 120.888C167.59 121.307 167.199 121.622 166.737 121.834C166.272 122.053 165.732 122.155 165.117 122.14C164.51 122.128 163.811 121.985 163.021 121.711L155.172 118.987L155.886 116.928L163.758 119.659C164.385 119.877 164.919 119.959 165.36 119.905C165.807 119.853 166.178 119.68 166.47 119.385C166.77 119.092 167.01 118.687 167.189 118.17C167.366 117.661 167.42 117.159 167.352 116.664C167.282 116.176 167.111 115.716 166.839 115.283C166.565 114.857 166.214 114.475 165.786 114.136C165.362 113.807 164.881 113.549 164.343 113.362Z" fill="#F42E0E"/>
<path d="M149.032 133.946L154.419 137.632C154.832 137.914 155.247 138.075 155.665 138.115C156.085 138.165 156.491 138.084 156.884 137.869C157.276 137.655 157.638 137.306 157.969 136.823C158.278 136.372 158.472 135.922 158.551 135.474C158.625 135.033 158.603 134.63 158.484 134.265C158.361 133.905 158.154 133.627 157.864 133.428L159.088 131.639C159.462 131.895 159.766 132.245 160.001 132.69C160.237 133.135 160.379 133.639 160.429 134.203C160.48 134.778 160.419 135.38 160.244 136.008C160.072 136.648 159.769 137.283 159.337 137.915C158.816 138.676 158.229 139.258 157.574 139.662C156.914 140.073 156.211 140.263 155.464 140.235C154.719 140.217 153.956 139.941 153.176 139.408L148.301 136.072C147.953 135.834 147.563 135.609 147.13 135.398C146.692 135.194 146.29 135.056 145.922 134.984L145.767 134.878L147.045 133.012C147.313 133.062 147.635 133.179 148.012 133.361C148.396 133.548 148.736 133.743 149.032 133.946ZM153.376 137.372L152.105 136.531L153.343 134.723C153.691 134.213 153.96 133.73 154.15 133.273C154.346 132.82 154.456 132.403 154.481 132.022C154.505 131.641 154.443 131.296 154.295 130.986C154.153 130.681 153.921 130.418 153.599 130.198C153.27 129.973 152.92 129.842 152.547 129.805C152.175 129.768 151.807 129.842 151.443 130.029C151.081 130.226 150.75 130.544 150.45 130.982C150.075 131.53 149.86 132.093 149.805 132.671C149.75 133.249 149.807 133.775 149.975 134.25C150.138 134.73 150.371 135.089 150.673 135.324L149.29 135.499C149.05 135.269 148.834 134.941 148.642 134.516C148.45 134.091 148.317 133.608 148.243 133.065C148.172 132.533 148.193 131.97 148.306 131.376C148.421 130.792 148.673 130.216 149.061 129.649C149.547 128.94 150.111 128.412 150.755 128.067C151.394 127.728 152.047 127.569 152.714 127.59C153.383 127.622 154.008 127.836 154.588 128.233C155.149 128.617 155.567 129.064 155.843 129.575C156.125 130.09 156.266 130.65 156.268 131.257C156.276 131.868 156.155 132.515 155.906 133.197C155.658 133.878 155.288 134.577 154.799 135.293L153.376 137.372Z" fill="#F42E0E"/>
<path d="M144.801 153.962L143.671 152.741L148.703 148.085L149.833 149.306L144.801 153.962ZM150.223 153.144L148.632 154.617L140.06 145.353C139.768 145.038 139.499 144.845 139.253 144.774C139.007 144.704 138.783 144.715 138.58 144.806C138.378 144.898 138.188 145.026 138.01 145.19C137.878 145.313 137.751 145.451 137.629 145.607C137.506 145.774 137.416 145.9 137.357 145.986L136.147 144.695C136.236 144.538 136.367 144.347 136.542 144.122C136.706 143.896 136.931 143.65 137.217 143.385C137.607 143.024 138.037 142.77 138.507 142.622C138.978 142.475 139.477 142.491 140.007 142.672C140.535 142.864 141.086 143.27 141.659 143.889L150.223 153.144Z" fill="#F42E0E"/>
<path d="M125.879 151.556C126.641 151.11 127.407 150.834 128.177 150.727C128.945 150.631 129.689 150.689 130.41 150.9C131.125 151.116 131.79 151.478 132.405 151.987C133.019 152.496 133.552 153.135 134.002 153.904L134.25 154.329C134.771 155.219 135.103 156.088 135.247 156.936C135.394 157.791 135.384 158.594 135.217 159.344C135.049 160.093 134.752 160.761 134.325 161.346C133.898 161.931 133.377 162.403 132.764 162.762C131.982 163.22 131.228 163.479 130.504 163.541C129.773 163.607 129.084 163.504 128.435 163.231C127.791 162.966 127.19 162.557 126.632 162.006C126.078 161.461 125.576 160.804 125.126 160.036L124.634 159.196L132.806 154.413L133.7 155.94L127.399 159.628L127.482 159.77C127.793 160.24 128.171 160.652 128.614 161.008C129.051 161.368 129.542 161.588 130.086 161.668C130.631 161.747 131.223 161.599 131.864 161.225C132.289 160.976 132.626 160.656 132.877 160.265C133.132 159.88 133.285 159.438 133.336 158.937C133.387 158.437 133.335 157.892 133.181 157.304C133.026 156.715 132.756 156.09 132.369 155.43L132.12 155.005C131.817 154.486 131.46 154.038 131.05 153.663C130.637 153.298 130.192 153.024 129.714 152.842C129.23 152.664 128.731 152.594 128.219 152.631C127.7 152.672 127.184 152.843 126.672 153.143C126.011 153.529 125.53 153.992 125.23 154.53C124.929 155.068 124.739 155.664 124.66 156.317L123 156.079C123.027 155.584 123.128 155.068 123.302 154.531C123.477 153.994 123.771 153.469 124.186 152.955C124.593 152.445 125.158 151.979 125.879 151.556Z" fill="#F42E0E"/>
<path d="M101.574 168.53L101.281 166.773L106.921 165.832L107.215 167.589L101.574 168.53Z" fill="#F42E0E"/>
</svg>
